# xmcd
# 
# Track frame offsets:
#     182
#     14137
#     25865
#     41367
#     55245
#     72687
#     84190
#     97142
#     109477
#     124700
#     139930
#     155202
# 
# Disc length: 2246
# 
# Revision: 5
# Processed by: cddbd v1.5.2PL0 Copyright (c) Steve Scherf et al.
# Submitted via: fre:ac v1.0.31
# 
DISCID=af08c40c
DTITLE=Various Artist - New Country - Disc One
DYEAR=1992
DGENRE=Country
TTITLE0=Alan Jackson - Chasin' That Neon Rainbow
TTITLE1=Dwight Yoakam - It Only Hurt's When I Cry
TTITLE2=Dolly Parton - Think 'About Love
TTITLE3=Aaron Tippin - You've Got To Stand For Something
TTITLE4=Mary Chapin-Carpenter - Quittin' Time
TTITLE5=Travis Tritt - Here's A Quarter (Call Somone Who Cares)
TTITLE6=The Kentucky Headhunters - Dumas Walker
TTITLE7=Tanya Tucker - Strong Enough To Bend
TTITLE8=Ricky Van Shelton - Living Proof
TTITLE9=Kathy Mattea - Eighteen Wheels And A Dozen Roses
TTITLE10=The Nitty Gritty Dirt Band - Fishin' In The Dark
TTITLE11=Hal Ketchum - Small Town Saturday Night
EXTD=YEAR: 1992
EXTT0=
EXTT1=
EXTT2=
EXTT3=
EXTT4=
EXTT5=
EXTT6=
EXTT7=
EXTT8=
EXTT9=
EXTT10=
EXTT11=
PLAYORDER=
